<?xml version="1.0" standalone="no"?>
<!DOCTYPE svg PUBLIC "-//W3C//DTD SVG 20010904//EN"
 "http://www.w3.org/TR/2001/REC-SVG-20010904/DTD/svg10.dtd">
<svg version="1.0" xmlns="http://www.w3.org/2000/svg"
 width="250.000000pt" height="250.000000pt" viewBox="0 0 250.000000 250.000000"
 preserveAspectRatio="xMidYMid meet">
<metadata>
Created by potrace 1.14, written by Peter Selinger 2001-2017
</metadata>
<g transform="translate(0.000000,250.000000) scale(0.100000,-0.100000)"
fill="#000000" stroke="none">
<path d="M845 2255 c-38 -47 -79 -101 -90 -119 l-19 -34 27 -39 c15 -21 27
-42 27 -45 0 -4 -21 -8 -47 -10 l-47 -3 -19 -70 c-29 -107 -28 -306 2 -405 13
-41 24 -76 26 -78 2 -2 21 6 44 17 22 12 43 21 45 21 3 0 -9 -27 -27 -59 l-32
-59 24 -43 c20 -36 77 -110 146 -187 9 -10 11 10 12 80 0 80 3 101 26 148 42
84 60 102 115 107 26 3 52 12 59 20 9 12 18 2 47 -54 l37 -68 -3 -161 c-3
-135 -6 -165 -20 -180 -13 -15 -14 -23 -5 -39 9 -15 12 -135 12 -440 0 -413 0
-420 21 -442 27 -30 79 -31 94 -3 6 11 18 20 27 20 13 0 13 3 3 15 -18 22 -7
829 11 851 9 11 8 18 -4 32 -23 26 -36 345 -15 370 8 9 26 39 38 65 19 37 26
44 32 32 6 -10 24 -15 53 -15 49 0 69 -16 110 -85 28 -48 47 -154 39 -221 l-5
-49 23 26 c83 95 119 142 152 202 42 77 81 202 90 294 l7 61 -56 12 c-31 6
-54 15 -50 18 3 4 27 14 53 23 l47 16 -3 49 c-5 75 -40 200 -74 268 -31 63
-71 118 -144 197 l-41 45 -6 -96 c-3 -59 -11 -109 -21 -128 -19 -38 -66 -72
-125 -93 -33 -11 -47 -22 -49 -37 -5 -34 -29 -26 -36 13 -4 19 -18 47 -32 62
-14 15 -28 40 -31 55 -5 24 -10 28 -39 28 -29 0 -34 -4 -34 -23 0 -12 -13 -38
-30 -57 -16 -19 -29 -44 -30 -55 -1 -44 -40 -60 -40 -16 0 12 -14 21 -47 29
-61 17 -119 63 -134 110 -7 20 -15 76 -18 125 l-6 87 -70 -85z"/>
</g>
</svg>
