<?xml version="1.0" encoding="UTF-8" standalone="no"?>
<svg
   xmlns:dc="http://purl.org/dc/elements/1.1/"
   xmlns:cc="http://creativecommons.org/ns#"
   xmlns:rdf="http://www.w3.org/1999/02/22-rdf-syntax-ns#"
   xmlns:svg="http://www.w3.org/2000/svg"
   xmlns="http://www.w3.org/2000/svg"
   xmlns:sodipodi="http://sodipodi.sourceforge.net/DTD/sodipodi-0.dtd"
   xmlns:inkscape="http://www.inkscape.org/namespaces/inkscape"
   version="1.0"
   width="250.000000pt"
   height="250.000000pt"
   viewBox="0 0 250.000000 250.000000"
   preserveAspectRatio="xMidYMid meet"
   id="svg879"
   sodipodi:docname="Bard.svg"
   inkscape:version="0.92.1 r15371">
  <defs
     id="defs883" />
  <sodipodi:namedview
     pagecolor="#ffffff"
     bordercolor="#666666"
     borderopacity="1"
     objecttolerance="10"
     gridtolerance="10"
     guidetolerance="10"
     inkscape:pageopacity="0"
     inkscape:pageshadow="2"
     inkscape:window-width="1366"
     inkscape:window-height="705"
     id="namedview881"
     showgrid="false"
     showguides="true"
     inkscape:guide-bbox="true"
     inkscape:zoom="5.664"
     inkscape:cx="171.47739"
     inkscape:cy="72.656823"
     inkscape:window-x="-8"
     inkscape:window-y="-8"
     inkscape:window-maximized="1"
     inkscape:current-layer="layer5" />
  <metadata
     id="metadata873">
Created by potrace 1.14, written by Peter Selinger 2001-2017
<rdf:RDF>
  <cc:Work
     rdf:about="">
    <dc:format>image/svg+xml</dc:format>
    <dc:type
       rdf:resource="http://purl.org/dc/dcmitype/StillImage" />
  </cc:Work>
</rdf:RDF>
</metadata>
  <g
     inkscape:groupmode="layer"
     id="layer5"
     inkscape:label="Layer 1">
    <g
       style="fill:#000000;stroke:none"
       transform="matrix(0.1,0,0,-0.1,2.8220376,248.49974)"
       id="g877">
      <path
         style="stroke-width:0.13333334"
         d="M 170.83008 12.666016 C 170.29674 12.799349 167.89557 13.59987 165.62891 14.533203 C 163.36224 15.59987 160.29531 18 158.69531 20 C 156.69531 22.533333 155.0957 23.332682 153.0957 22.666016 C 150.16237 21.732682 149.49648 23.998698 151.89648 27.332031 C 152.96315 28.798698 153.49596 28.932943 154.0293 27.599609 C 155.09596 25.066276 157.0957 25.732682 157.0957 28.666016 C 157.0957 30.666016 156.16367 31.332031 153.76367 31.332031 C 151.89701 31.332031 150.42969 30.665755 150.42969 29.732422 C 150.42969 28.665755 150.02904 28.533464 149.0957 29.466797 C 146.42904 32.133464 149.09518 35.333724 153.22852 34.400391 C 156.82852 33.733724 157.0957 34.00013 157.0957 37.466797 C 157.0957 40.40013 156.69609 40.799609 155.49609 39.599609 C 153.22943 37.332943 151.76367 37.59987 151.76367 40.533203 C 151.76367 43.866537 154.42982 45.599219 155.89648 43.199219 C 156.69648 41.732552 157.0957 42.132292 157.0957 44.265625 C 157.0957 47.465625 154.16328 49.999609 153.36328 47.599609 C 152.56328 45.066276 150.42969 45.733724 150.42969 48.400391 C 150.42969 51.867057 151.89648 52.932552 153.89648 51.199219 C 155.36315 49.999219 155.89635 50.266146 156.42969 52.132812 C 156.82969 53.599479 158.56354 57.332682 160.29688 60.666016 L 163.36328 66.666016 L 161.62891 113.33203 C 160.69557 138.93203 159.89701 164.2668 159.76367 169.4668 C 159.76367 178.6668 159.62956 179.06549 150.96289 192.79883 C 140.42956 209.33216 132.69583 228.66536 128.5625 249.33203 C 125.89583 262.53203 125.76237 265.2 127.0957 276 C 128.2957 285.6 129.63034 289.86575 133.76367 297.73242 C 139.76367 308.79909 141.7625 310.26654 154.5625 312.5332 C 165.62917 314.39987 176.56224 314.39987 187.62891 312.5332 C 200.69557 310.26654 203.09531 308.53294 208.69531 297.59961 C 218.82865 277.73294 218.16302 256.3987 206.42969 223.33203 C 202.29635 211.5987 198.29701 203.33346 191.76367 193.4668 L 182.96289 179.73242 L 181.36328 131.19922 C 180.42995 104.53255 179.62995 79.066537 179.36328 74.533203 C 179.22995 68.533203 179.89596 64.933203 182.0293 60.533203 C 183.6293 57.333203 185.36367 53.466667 185.76367 52 C 186.56367 49.466667 186.69635 49.465755 188.42969 51.732422 C 189.89635 53.865755 190.16289 53.867188 190.96289 51.867188 C 191.36289 50.800521 191.76367 48.799089 191.76367 47.732422 C 191.76367 46.132422 191.36367 45.998698 189.76367 47.332031 C 188.69701 48.132031 187.22969 48.533333 186.42969 48 C 184.69635 46.933333 184.69635 42 186.42969 42 C 187.22969 42 187.76367 42.666797 187.76367 43.466797 C 187.76367 44.133464 188.42904 44.4 189.0957 44 C 189.8957 43.6 190.42969 41.99987 190.42969 40.533203 C 190.42969 39.19987 189.8957 38 189.0957 38 C 188.42904 38 187.76367 38.532031 187.76367 39.332031 C 187.76367 39.998698 187.22969 40.666016 186.42969 40.666016 C 185.76302 40.666016 185.0957 39.198698 185.0957 37.332031 C 185.0957 34.932031 185.76367 34 187.76367 34 C 189.23034 34 190.42969 34.799609 190.42969 35.599609 C 190.56302 37.332943 194.42969 32.932552 194.42969 31.199219 C 194.42969 30.665885 192.29701 30.533594 189.76367 30.933594 C 185.63034 31.60026 185.0957 31.332162 185.0957 28.798828 C 185.0957 25.732161 187.09544 24.932943 188.16211 27.599609 C 188.69544 28.932943 189.23021 28.798698 190.29688 27.332031 C 192.69688 23.998698 192.02904 21.732682 189.0957 22.666016 C 187.0957 23.332682 185.49609 22.533333 183.49609 20 C 180.96276 16.8 173.63008 12.532682 170.83008 12.666016 z M 171.0957 227.33203 C 186.02057 228.1904 189.87742 243.89991 185.0957 252.40039 C 174.56237 269.73372 147.89583 255.5987 156.5625 237.33203 C 158.69583 232.7987 162.31773 227.8314 171.0957 227.33203 z M 152.22266 242.93164 C 152.22266 242.93164 138.43615 259.07766 137.76562 268.94531 C 138.64596 276.73639 154.53524 279.4782 154.09766 287.30664 C 153.90959 290.67111 146.85547 294.35742 146.85547 294.35742 C 146.85547 294.35742 144.35573 297.61875 142.43555 297.87891 C 140.51536 298.13907 138.14844 295.61914 138.14844 295.61914 C 138.14844 295.61914 137.73069 292.06285 140.00781 289.40234 C 143.29856 289.46581 142.38701 290.77224 144.55664 291.41211 C 147.19548 290.01423 151.65529 288.069 149.98828 285.48047 C 146.9832 280.8142 133.68024 276.71866 134.33008 269.41406 C 135.60725 255.05781 152.22266 242.93164 152.22266 242.93164 z M 191.13867 242.94922 C 191.13867 242.94922 207.75212 255.07539 209.0293 269.43164 C 209.67914 276.73624 196.37813 280.82983 193.37305 285.49609 C 191.70603 288.08463 196.16583 290.03181 198.80469 291.42969 C 200.97431 290.78982 200.06277 289.48144 203.35352 289.41797 C 205.63064 292.07848 205.21094 295.63477 205.21094 295.63477 C 205.21094 295.63477 202.84401 298.15469 200.92383 297.89453 C 199.00363 297.63437 196.50586 294.375 196.50586 294.375 C 196.50586 294.375 189.44979 290.68673 189.26172 287.32227 C 188.82413 279.49383 204.71342 276.75202 205.59375 268.96094 C 204.92323 259.09328 191.13867 242.94922 191.13867 242.94922 z M 153.80664 294.38281 L 190.75977 294.38281 L 190.75977 305.36914 L 153.80664 305.36914 L 153.80664 294.38281 z "
         transform="matrix(7.4999998,0,0,-7.4999998,-28.220376,2484.9974)"
         id="path875" />
    </g>
  </g>
</svg>
