<?xml version="1.0" standalone="no"?>
<!DOCTYPE svg PUBLIC "-//W3C//DTD SVG 20010904//EN"
 "http://www.w3.org/TR/2001/REC-SVG-20010904/DTD/svg10.dtd">
<svg version="1.0" xmlns="http://www.w3.org/2000/svg"
 width="250.000000pt" height="250.000000pt" viewBox="0 0 250.000000 250.000000"
 preserveAspectRatio="xMidYMid meet">
<metadata>
Created by potrace 1.15, written by Peter Selinger 2001-2017
</metadata>
<g transform="translate(0.000000,250.000000) scale(0.100000,-0.100000)"
fill="#000000" stroke="none">
<path d="M1300 2350 c-237 -34 -439 -208 -505 -434 -13 -43 -16 -85 -13 -156
3 -88 7 -104 40 -171 45 -90 113 -159 223 -226 75 -45 80 -51 83 -86 3 -28 -3
-43 -23 -64 l-27 -28 4 -303 c3 -277 2 -302 -13 -302 -25 0 -78 65 -72 88 2
10 -3 45 -12 77 -10 33 -13 60 -8 64 19 13 43 56 43 78 0 18 -6 23 -25 23 -30
0 -30 -3 -6 44 27 53 16 82 -32 79 l-35 -2 5 62 c8 98 -24 151 -67 112 -24
-21 -21 -24 -53 42 -46 89 -101 113 -131 54 -19 -36 -35 -130 -29 -163 5 -25
2 -28 -21 -28 -19 0 -29 -7 -36 -24 -15 -40 9 -93 64 -143 l51 -46 -22 -14
c-48 -32 -19 -86 52 -98 85 -13 88 -15 74 -31 -10 -12 -10 -18 2 -29 22 -22
131 -85 147 -85 7 0 40 -24 73 -52 57 -52 59 -54 59 -105 0 -58 -13 -101 -37
-118 -25 -19 -31 -120 -8 -145 10 -11 24 -20 30 -20 7 0 20 -11 29 -25 16 -24
21 -25 69 -19 80 10 92 27 92 133 l0 87 50 49 c28 26 59 49 70 49 42 3 172 92
148 102 -26 11 -12 22 37 28 69 9 99 25 107 54 5 20 0 30 -21 47 l-27 21 42
33 c50 41 79 86 79 126 0 35 -15 55 -42 55 -15 0 -18 9 -18 48 -1 62 -17 132
-37 154 -37 41 -80 14 -128 -81 l-27 -55 -19 25 c-15 19 -21 22 -36 13 -28
-17 -44 -77 -34 -129 9 -50 4 -59 -33 -49 -21 5 -28 1 -37 -18 -10 -23 -1 -55
28 -109 2 -4 -7 -4 -20 -2 -14 3 -27 0 -31 -5 -9 -14 11 -62 36 -89 15 -16 18
-26 11 -35 -6 -7 -14 -38 -18 -68 -7 -56 -34 -108 -67 -129 -21 -13 -21 -13
-23 486 -1 266 -4 315 -17 330 -12 15 -14 32 -7 97 4 43 5 84 2 92 -3 8 -19
14 -35 14 -38 0 -159 92 -204 156 -102 144 -80 328 58 479 36 40 73 66 132 95
95 47 179 65 336 74 106 6 127 4 249 -24 74 -17 136 -29 138 -27 2 2 -11 19
-29 36 -44 43 -161 98 -244 116 -89 19 -254 26 -334 15z"/>
</g>
</svg>
