<?xml version="1.0" standalone="no"?>
<!DOCTYPE svg PUBLIC "-//W3C//DTD SVG 20010904//EN"
 "http://www.w3.org/TR/2001/REC-SVG-20010904/DTD/svg10.dtd">
<svg version="1.0" xmlns="http://www.w3.org/2000/svg"
 width="250.000000pt" height="250.000000pt" viewBox="0 0 250.000000 250.000000"
 preserveAspectRatio="xMidYMid meet">
<metadata>
Created by potrace 1.14, written by Peter Selinger 2001-2017
</metadata>
<g transform="translate(0.000000,250.000000) scale(0.100000,-0.100000)"
fill="#000000" stroke="none">
<path d="M187 2321 c-31 -20 -56 -50 -57 -67 0 -7 20 -21 45 -33 25 -12 45
-26 45 -31 0 -6 63 -72 140 -147 77 -75 140 -140 140 -145 0 -4 -7 -8 -15 -8
-8 0 -15 -9 -15 -19 0 -12 -23 -39 -57 -67 -84 -67 -91 -88 -33 -96 20 -2 26
2 28 22 4 27 31 61 74 91 22 16 31 17 52 8 14 -7 26 -19 26 -28 0 -14 127
-145 228 -236 l32 -29 0 112 0 112 -72 75 c-41 44 -77 74 -85 71 -7 -3 -19 7
-28 23 -14 28 -13 30 25 74 25 28 51 47 71 51 23 4 30 10 25 22 -3 9 -6 22 -6
30 0 33 -39 10 -88 -51 -33 -40 -60 -65 -72 -65 -11 0 -20 -7 -20 -15 0 -8 -1
-15 -2 -15 -10 0 -328 324 -328 333 0 7 -6 20 -13 29 -13 16 -15 16 -40 -1z"/>
<path d="M2015 2182 c-38 -18 -225 -202 -225 -221 0 -7 -36 -50 -80 -95 l-80
-82 0 -55 0 -54 108 107 c59 59 118 109 132 112 22 6 31 -3 78 -69 52 -74 53
-77 59 -163 5 -81 4 -91 -22 -142 -15 -30 -39 -70 -52 -89 l-26 -33 34 7 c75
16 144 50 222 108 136 103 217 198 272 322 31 72 31 79 0 71 -33 -8 -134 18
-204 54 -31 15 -81 50 -110 77 -55 49 -55 50 -41 82 12 30 11 34 -11 55 -22
21 -26 22 -54 8z"/>
<path d="M841 1333 c0 -770 1 -783 70 -861 24 -28 78 -77 119 -110 71 -56 117
-101 168 -166 l23 -30 64 71 c36 39 100 100 144 136 43 36 95 86 116 112 61
74 64 115 65 863 l0 643 -58 -40 c-65 -46 -107 -61 -170 -61 -57 0 -104 21
-131 59 -27 38 -34 38 -51 5 -21 -37 -79 -64 -142 -64 -60 0 -120 24 -179 71
l-39 31 1 -659z"/>
<path d="M510 667 c-168 -169 -317 -312 -332 -318 -32 -13 -43 -40 -28 -68 23
-45 74 -49 85 -8 4 12 137 151 296 308 l290 286 -3 53 -3 53 -305 -306z"/>
<path d="M1623 835 l0 -65 181 -173 c231 -222 299 -282 376 -336 70 -48 69
-47 -9 59 -51 69 -528 580 -542 580 -3 0 -6 -29 -6 -65z"/>
</g>
</svg>
