<?xml version="1.0" standalone="no"?>
<!DOCTYPE svg PUBLIC "-//W3C//DTD SVG 20010904//EN"
 "http://www.w3.org/TR/2001/REC-SVG-20010904/DTD/svg10.dtd">
<svg version="1.0" xmlns="http://www.w3.org/2000/svg"
 width="250.000000pt" height="250.000000pt" viewBox="0 0 250.000000 250.000000"
 preserveAspectRatio="xMidYMid meet">
<metadata>
Created by potrace 1.15, written by Peter Selinger 2001-2017
</metadata>
<g transform="translate(0.000000,250.000000) scale(0.100000,-0.100000)"
fill="#000000" stroke="none">
<path d="M1230 2371 c-25 -4 -58 -15 -74 -26 l-29 -19 7 -160 c7 -159 7 -159
-17 -185 -23 -25 -24 -29 -14 -101 l10 -76 -71 -68 c-39 -38 -81 -76 -94 -84
-22 -16 -22 -16 2 18 13 19 45 60 72 91 l48 57 -16 69 -15 70 -62 -12 c-34 -7
-113 -23 -175 -36 -112 -23 -114 -24 -128 -58 -11 -27 -13 -71 -9 -220 9 -281
0 -254 108 -352 51 -46 105 -94 120 -106 l28 -22 -10 -453 -9 -453 22 -35 c21
-31 41 -42 172 -93 132 -50 157 -57 220 -57 71 0 74 1 199 73 101 57 133 80
153 112 l25 40 -27 400 c-15 220 -29 414 -32 432 -4 28 0 35 39 63 40 29 46
39 77 133 30 93 34 120 44 297 6 107 10 247 8 311 l-3 115 -55 27 c-63 31 -91
34 -98 10 -2 -10 -15 -91 -27 -181 -19 -137 -25 -162 -38 -158 -9 3 -38 8 -66
13 l-50 8 50 5 50 5 22 135 c12 74 22 179 23 232 l0 98 -52 26 c-49 25 -148
57 -155 50 -2 -1 -7 -106 -13 -232 -14 -307 -10 -290 -67 -298 -25 -3 -67 -6
-92 -5 l-46 0 75 23 75 22 7 59 c4 33 10 160 14 283 l7 222 -44 -1 c-24 -1
-64 -5 -89 -8z m5 -960 l78 -54 71 24 c105 35 107 35 36 -11 -36 -24 -68 -47
-71 -51 -3 -5 -14 -62 -25 -127 l-19 -117 -9 127 -8 128 -79 62 c-43 35 -78
69 -79 76 0 15 -3 16 105 -57z"/>
<path d="M946 2246 c-38 -18 -72 -39 -76 -47 -11 -20 -35 -218 -27 -225 3 -3
52 1 108 10 56 9 104 14 107 12 2 -3 13 -1 23 5 17 9 19 23 19 144 l0 135 -42
-1 c-26 0 -70 -14 -112 -33z"/>
</g>
</svg>
