<?xml version="1.0" standalone="no"?>
<!DOCTYPE svg PUBLIC "-//W3C//DTD SVG 20010904//EN"
 "http://www.w3.org/TR/2001/REC-SVG-20010904/DTD/svg10.dtd">
<svg version="1.0" xmlns="http://www.w3.org/2000/svg"
 width="250.000000pt" height="250.000000pt" viewBox="0 0 250.000000 250.000000"
 preserveAspectRatio="xMidYMid meet">
<metadata>
Created by potrace 1.15, written by Peter Selinger 2001-2017
</metadata>
<g transform="translate(0.000000,250.000000) scale(0.100000,-0.100000)"
fill="#000000" stroke="none">
<path d="M791 2307 c-2 -34 -61 -132 -95 -157 -22 -16 -43 -45 -59 -81 l-24
-57 18 -98 c24 -125 20 -166 -5 -56 -11 45 -22 82 -25 82 -4 0 -19 -42 -34
-92 l-27 -93 20 -109 c11 -60 20 -121 20 -135 0 -24 -3 -22 -26 17 -14 24 -27
42 -28 40 -2 -2 0 -44 4 -93 7 -95 21 -132 72 -197 31 -40 27 -48 -10 -22 -13
9 -25 14 -27 12 -2 -2 2 -26 9 -53 11 -47 17 -53 77 -88 l64 -38 -55 7 -54 7
35 -49 c33 -46 38 -49 85 -52 l49 -4 -33 -17 -33 -17 52 -24 52 -25 34 40 c32
38 33 41 32 119 0 45 5 103 11 129 12 45 14 48 39 42 55 -13 55 -16 42 -232
-13 -218 -16 -229 -81 -265 -25 -14 -46 -17 -74 -13 l-40 6 53 -43 c90 -73
272 -365 332 -533 l18 -50 1 65 c0 36 5 176 9 311 10 292 0 370 -61 462 -35
52 -78 131 -78 142 0 3 20 5 43 5 35 0 55 -8 100 -41 37 -26 59 -50 63 -67 11
-45 17 -47 28 -9 8 26 26 47 65 77 46 34 62 40 103 40 l48 0 -21 -43 c-12 -23
-40 -68 -61 -100 -65 -96 -72 -150 -62 -525 l9 -317 18 54 c29 86 88 197 183
342 76 117 108 155 183 217 14 11 11 12 -15 7 -41 -8 -109 20 -133 54 -15 21
-20 61 -30 225 -14 216 -13 218 40 231 25 6 27 3 39 -42 6 -26 11 -84 11 -129
-1 -78 0 -81 32 -119 l34 -40 52 25 52 24 -33 17 -33 17 49 4 c47 3 52 6 85
52 l35 49 -54 -7 -55 -7 64 38 c60 35 66 41 77 88 7 27 11 51 9 53 -2 2 -14
-3 -27 -12 -37 -26 -41 -18 -10 22 51 65 65 102 72 197 4 49 6 91 4 93 -1 2
-14 -16 -28 -40 -23 -38 -26 -40 -26 -18 0 14 9 76 20 139 l19 114 -27 88
c-14 49 -29 89 -33 89 -3 0 -14 -37 -25 -82 -25 -110 -29 -69 -5 56 l18 98
-24 57 c-16 36 -37 65 -59 81 -34 25 -93 123 -95 157 0 13 -3 12 -10 -6 -13
-32 4 -126 42 -224 35 -95 37 -152 8 -279 -20 -91 -26 -103 -97 -187 -35 -42
-110 -55 -142 -26 -18 16 -21 17 -44 1 -24 -15 -26 -15 -37 5 -6 12 -44 57
-85 100 -40 44 -82 98 -92 122 l-19 42 -26 -50 c-14 -27 -51 -75 -82 -105 -31
-30 -68 -72 -81 -93 -24 -37 -25 -37 -49 -21 -24 16 -27 15 -45 -1 -32 -29
-107 -16 -142 26 -71 84 -77 96 -97 187 -29 127 -27 184 8 279 38 98 55 192
42 224 -7 18 -10 19 -10 6z"/>
</g>
</svg>
