<?xml version="1.0" standalone="no"?>
<!DOCTYPE svg PUBLIC "-//W3C//DTD SVG 20010904//EN"
 "http://www.w3.org/TR/2001/REC-SVG-20010904/DTD/svg10.dtd">
<svg version="1.0" xmlns="http://www.w3.org/2000/svg"
 width="250.000000pt" height="250.000000pt" viewBox="0 0 250.000000 250.000000"
 preserveAspectRatio="xMidYMid meet">
<metadata>
Created by potrace 1.15, written by Peter Selinger 2001-2017
</metadata>
<g transform="translate(0.000000,250.000000) scale(0.100000,-0.100000)"
fill="#000000" stroke="none">
<path d="M1891 2288 c-21 -83 -99 -228 -227 -424 -118 -181 -203 -288 -391
-489 -114 -123 -150 -171 -248 -332 -64 -106 -67 -114 -52 -131 34 -37 11 -89
-58 -132 -19 -12 -35 -28 -35 -37 0 -8 -25 -78 -55 -155 -30 -77 -55 -147 -55
-157 0 -9 -13 -21 -29 -28 -25 -9 -29 -16 -29 -49 1 -45 -22 -128 -40 -146
-17 -17 -15 -46 6 -76 10 -15 22 -35 25 -44 5 -16 10 -16 34 -6 42 19 71 54
79 96 17 100 116 367 196 526 96 192 236 385 329 454 24 18 91 67 149 109 135
99 251 214 280 279 67 149 114 326 135 509 24 207 15 349 -14 233z"/>
<path d="M660 2248 c0 -170 34 -384 87 -543 68 -206 113 -266 327 -428 l48
-38 62 67 c100 109 102 86 -24 229 -194 221 -450 631 -476 763 -12 59 -24 33
-24 -50z"/>
<path d="M1424 1197 c-12 -7 -42 -31 -68 -54 -53 -47 -53 -43 10 -118 60 -71
160 -234 211 -343 92 -196 183 -444 183 -498 0 -37 37 -82 82 -102 26 -11 29
-10 42 22 8 18 19 37 25 40 15 10 14 53 -2 63 -16 10 -41 97 -42 148 0 34 -4
41 -28 49 -15 6 -27 16 -27 24 0 8 -24 75 -53 151 -30 75 -57 148 -61 164 -3
15 -11 27 -16 27 -6 0 -28 16 -50 36 -44 40 -52 75 -24 105 15 17 11 26 -59
141 -101 164 -97 160 -123 145z"/>
<path d="M1183 711 c-42 -48 -43 -52 -43 -118 1 -59 4 -72 28 -100 33 -39 73
-51 96 -28 28 28 26 145 -5 214 -10 24 -19 52 -19 62 0 29 -11 23 -57 -30z"/>
<path d="M1357 733 c-3 -16 -13 -48 -22 -73 -17 -44 -22 -142 -10 -180 14 -43
78 -32 115 20 18 25 23 45 23 95 0 60 -3 66 -44 114 -24 28 -47 51 -50 51 -4
0 -9 -12 -12 -27z"/>
<path d="M1079 574 c-32 -36 -79 -131 -79 -158 0 -51 48 -116 86 -116 26 0 74
52 74 80 0 11 -12 45 -27 77 -15 32 -30 75 -33 97 -5 37 -6 37 -21 20z"/>
<path d="M1504 572 c5 -15 -2 -42 -23 -85 -46 -94 -48 -117 -16 -155 16 -19
36 -32 50 -32 34 0 85 65 85 108 0 37 -50 140 -82 169 -20 18 -20 17 -14 -5z"/>
<path d="M1250 404 c-40 -12 -48 -20 -75 -71 -25 -48 -39 -63 -80 -84 -27 -14
-51 -33 -53 -43 -2 -10 12 -32 33 -52 42 -39 65 -42 160 -18 60 15 70 15 130
0 95 -24 118 -21 160 18 46 44 43 65 -17 93 -38 18 -53 33 -80 82 -43 79 -95
101 -178 75z"/>
</g>
</svg>
