<?xml version="1.0" encoding="UTF-8" standalone="no"?>
<svg
   xmlns:dc="http://purl.org/dc/elements/1.1/"
   xmlns:cc="http://creativecommons.org/ns#"
   xmlns:rdf="http://www.w3.org/1999/02/22-rdf-syntax-ns#"
   xmlns:svg="http://www.w3.org/2000/svg"
   xmlns="http://www.w3.org/2000/svg"
   xmlns:sodipodi="http://sodipodi.sourceforge.net/DTD/sodipodi-0.dtd"
   xmlns:inkscape="http://www.inkscape.org/namespaces/inkscape"
   version="1.0"
   width="250.000000pt"
   height="250.000000pt"
   viewBox="0 0 250.000000 250.000000"
   preserveAspectRatio="xMidYMid meet"
   id="svg16"
   sodipodi:docname="Rogue.svg"
   inkscape:version="0.92.1 r15371">
  <defs
     id="defs20" />
  <sodipodi:namedview
     pagecolor="#ffffff"
     bordercolor="#666666"
     borderopacity="1"
     objecttolerance="10"
     gridtolerance="10"
     guidetolerance="10"
     inkscape:pageopacity="0"
     inkscape:pageshadow="2"
     inkscape:window-width="1366"
     inkscape:window-height="705"
     id="namedview18"
     showgrid="false"
     showguides="true"
     inkscape:guide-bbox="true"
     inkscape:zoom="0.783"
     inkscape:cx="193.12489"
     inkscape:cy="160.48855"
     inkscape:window-x="-8"
     inkscape:window-y="-8"
     inkscape:window-maximized="1"
     inkscape:current-layer="layer1" />
  <metadata
     id="metadata10">
Created by potrace 1.14, written by Peter Selinger 2001-2017
<rdf:RDF>
  <cc:Work
     rdf:about="">
    <dc:format>image/svg+xml</dc:format>
    <dc:type
       rdf:resource="http://purl.org/dc/dcmitype/StillImage" />
  </cc:Work>
</rdf:RDF>
</metadata>
  <g
     inkscape:groupmode="layer"
     id="layer1"
     inkscape:label="Layer 1"
     style="display:inline">
    <g
       style="fill:#000000;stroke:none"
       transform="matrix(0.1,0,0,-0.1,-0.9157124,251.08894)"
       id="g14">
      <path
         style="stroke-width:0.13333334"
         d="M 164.43945 21.615234 C 162.8207 21.602734 161.44492 21.851953 161.04492 22.251953 C 159.17826 24.11862 159.97995 37.852474 162.11328 40.119141 C 163.97995 42.252474 163.84635 43.052864 161.17969 48.519531 L 158.11328 54.652344 L 150.64648 54.785156 C 143.71315 54.785156 142.1125 54.119141 125.3125 44.119141 C 101.97917 30.252474 100.91172 30.11875 80.511719 37.71875 C 71.845052 41.052083 59.579688 45.184635 53.179688 46.917969 C 46.646354 48.651302 41.445312 50.519401 41.445312 51.052734 C 41.445312 51.719401 42.112109 52.119141 42.912109 52.119141 C 43.578776 52.119141 50.511849 58.117838 57.978516 65.451172 C 71.578516 78.784506 71.845442 78.917708 82.912109 81.984375 C 89.045443 83.584375 101.5793 87.852213 110.7793 91.185547 C 120.11263 94.652214 128.91172 97.451172 130.51172 97.451172 C 132.24505 97.451172 138.11146 95.052474 143.57812 92.119141 C 155.57813 85.71914 159.44505 85.185807 158.51172 90.119141 C 158.11172 91.985807 158.77995 101.71875 160.11328 111.71875 C 161.31328 121.85208 162.11289 130.65221 161.71289 131.18555 C 161.04622 132.51888 150.51237 131.05234 143.8457 128.65234 C 137.97904 126.65234 137.71146 127.4513 141.57812 134.91797 L 144.24609 140.38477 L 147.44531 137.45117 C 149.84531 135.31784 151.57852 134.65169 153.97852 135.31836 C 157.84518 136.25169 158.51185 140.51771 155.97852 147.98438 C 154.51185 152.25104 154.51198 152.91901 159.44531 256.65234 C 161.17865 292.78568 163.9793 317.45286 166.7793 320.51953 C 168.91263 322.91953 172.24531 294.25274 173.44531 263.05273 C 177.57865 153.58606 177.57995 152.78503 176.11328 147.31836 C 175.17995 144.25169 174.77826 140.38568 175.04492 138.65234 C 175.57826 134.38568 180.77982 133.71836 184.64648 137.31836 L 187.57812 140.11914 L 190.64648 133.98438 C 192.24648 130.51771 193.31159 127.58503 193.04492 127.31836 C 192.77826 127.05169 190.24583 127.5862 187.3125 128.51953 C 184.5125 129.5862 179.17813 130.78503 175.57812 131.31836 L 169.17969 132.38477 L 169.97852 127.18555 C 170.64518 122.51888 173.0457 99.318099 173.8457 90.384766 L 174.11328 86.519531 L 184.37891 91.984375 C 190.11224 95.051042 195.97956 97.451172 197.71289 97.451172 C 199.31289 97.451172 208.11198 94.652214 217.44531 91.185547 C 226.64531 87.852213 239.17917 83.584375 245.3125 81.984375 C 256.37917 78.917708 256.64609 78.784506 270.24609 65.451172 C 277.71276 58.117838 284.64583 52.119141 285.3125 52.119141 C 286.1125 52.119141 286.7793 51.719401 286.7793 51.052734 C 286.7793 50.519401 281.57969 48.651302 275.17969 46.917969 C 268.64635 45.184635 256.37813 41.051563 247.57812 37.851562 C 227.31146 30.251562 226.37982 30.385286 202.64648 44.251953 C 187.04648 53.31862 183.71224 54.785156 178.37891 54.785156 C 173.57891 54.785156 172.11328 54.252344 172.11328 52.652344 C 172.11328 51.452344 170.9125 48.785677 169.3125 46.652344 C 166.64583 42.91901 166.64648 42.51862 168.64648 40.251953 C 170.37982 38.385286 170.77839 35.717709 170.51172 29.984375 C 170.11172 22.251041 169.97995 22.11875 166.11328 21.71875 C 165.54661 21.652083 164.97904 21.619401 164.43945 21.615234 z M 114.47461 57.3125 C 121.33925 62.101772 132.97293 67.310844 145.76367 75.351562 C 136.48352 78.917332 137.44898 77.619629 132.99219 79.662109 C 120.16185 75.731924 110.95991 73.264394 93.880859 68.486328 C 93.880859 68.486328 108.24858 60.345705 114.47461 57.3125 z M 216.79492 58.109375 C 223.02095 61.14258 237.38867 69.285156 237.38867 69.285156 C 220.30962 74.063222 211.10572 76.528799 198.27539 80.458984 C 193.81859 78.416504 194.78405 79.71616 185.50391 76.150391 C 198.29465 68.109672 209.93028 62.898647 216.79492 58.109375 z "
         transform="matrix(7.4999998,0,0,-7.4999998,9.157124,2510.8894)"
         id="path12" />
    </g>
  </g>
</svg>
