<?xml version="1.0" standalone="no"?>
<!DOCTYPE svg PUBLIC "-//W3C//DTD SVG 20010904//EN"
 "http://www.w3.org/TR/2001/REC-SVG-20010904/DTD/svg10.dtd">
<svg version="1.0" xmlns="http://www.w3.org/2000/svg"
 width="250.000000pt" height="250.000000pt" viewBox="0 0 250.000000 250.000000"
 preserveAspectRatio="xMidYMid meet">
<metadata>
Created by potrace 1.15, written by Peter Selinger 2001-2017
</metadata>
<g transform="translate(0.000000,250.000000) scale(0.100000,-0.100000)"
fill="#000000" stroke="none">
<path d="M1222 2272 c-13 -96 -17 -121 -32 -202 -31 -174 -47 -239 -91 -375
-27 -82 -49 -153 -49 -157 0 -4 -38 -90 -85 -193 -47 -102 -89 -205 -95 -228
-5 -23 -26 -98 -47 -167 -35 -119 -37 -131 -37 -265 1 -124 4 -148 26 -212 52
-147 137 -251 247 -306 62 -30 71 -32 181 -32 104 0 120 3 173 27 139 65 241
214 278 406 14 75 7 236 -14 307 -8 28 -29 104 -47 170 -20 74 -62 185 -110
290 -90 197 -84 182 -149 390 -28 88 -55 194 -61 235 -34 229 -63 386 -73 396
-1 2 -8 -36 -15 -84z m-7 -1142 c-4 -26 -1 -48 10 -70 24 -46 45 -182 45 -290
0 -88 1 -93 16 -72 8 12 18 54 21 92 3 39 10 70 14 70 5 0 9 -11 9 -24 0 -14
11 -46 25 -72 29 -54 33 -129 10 -160 -23 -30 -18 -41 15 -36 25 4 30 9 30 33
0 36 22 38 38 5 11 -24 3 -106 -13 -149 -4 -10 -31 -29 -60 -43 -29 -15 -56
-35 -58 -45 -6 -21 -51 -27 -63 -8 -4 6 -20 8 -39 5 -19 -4 -36 -2 -40 4 -3 5
-15 10 -25 10 -32 0 -80 48 -80 80 0 16 -4 30 -8 32 -16 7 -50 64 -52 88 -4
47 0 74 9 64 5 -5 11 -17 13 -28 1 -10 13 -22 26 -27 19 -7 22 -5 22 16 0 13
-4 27 -10 30 -5 3 -10 38 -10 77 0 55 5 78 22 107 52 85 76 86 63 5 -6 -44 -6
-45 14 -34 51 27 58 81 35 268 -3 29 -3 69 1 88 8 48 28 32 20 -16z"/>
</g>
</svg>
