<?xml version="1.0" standalone="no"?>
<!DOCTYPE svg PUBLIC "-//W3C//DTD SVG 20010904//EN"
 "http://www.w3.org/TR/2001/REC-SVG-20010904/DTD/svg10.dtd">
<svg version="1.0" xmlns="http://www.w3.org/2000/svg"
 width="600.000000pt" height="600.000000pt" viewBox="0 0 600.000000 600.000000"
 preserveAspectRatio="xMidYMid meet">
<metadata>
Created by potrace 1.15, written by Peter Selinger 2001-2017
</metadata>
<g transform="translate(0.000000,600.000000) scale(0.100000,-0.100000)"
fill="#000000" stroke="none">
<path d="M2153 5100 c-48 -10 -123 -46 -123 -59 0 -14 28 -21 83 -21 72 -1
193 -24 248 -48 63 -27 110 -71 138 -127 21 -41 22 -52 12 -85 -15 -50 -45
-87 -91 -110 -65 -33 -105 -34 -220 -5 -208 53 -401 76 -462 56 -40 -13 -83
-54 -73 -70 3 -6 17 -11 30 -11 58 0 125 -46 125 -87 0 -40 -27 -91 -57 -106
-15 -8 -68 -22 -116 -31 -128 -24 -362 -93 -431 -127 -32 -16 -80 -45 -106
-64 -63 -46 -177 -168 -197 -211 -16 -32 -16 -36 0 -51 16 -16 21 -15 81 17
56 30 67 33 89 23 35 -16 59 -56 59 -98 0 -76 -131 -251 -364 -487 -188 -190
-223 -239 -271 -375 -25 -73 -31 -108 -35 -208 -4 -103 -1 -132 18 -203 15
-57 29 -86 42 -93 11 -6 22 -8 25 -5 3 3 24 42 47 88 33 68 48 86 78 101 78
38 153 -6 186 -112 15 -49 17 -92 14 -346 -5 -410 15 -541 110 -735 45 -90 64
-117 139 -192 90 -91 122 -106 150 -72 10 13 10 25 -6 69 -32 95 -18 142 56
193 64 44 146 11 213 -86 232 -336 436 -564 601 -673 103 -68 285 -111 315
-74 13 15 9 21 -32 58 -52 47 -68 73 -68 111 0 62 81 87 220 67 89 -13 199
-52 410 -144 182 -80 243 -98 345 -104 108 -6 159 4 163 34 2 17 -8 28 -45 49
-72 41 -83 53 -83 91 0 52 26 92 73 114 58 26 81 24 231 -15 318 -84 461 -86
654 -9 85 34 155 99 150 140 -3 28 -4 28 -71 28 -60 0 -71 3 -88 24 -24 29
-24 48 1 88 35 59 127 119 313 204 99 46 213 103 253 126 94 55 184 146 184
185 0 33 -17 36 -90 15 -123 -35 -142 37 -50 193 42 71 110 140 270 272 122
101 146 130 206 242 57 107 83 183 91 268 5 63 5 68 -14 68 -13 0 -30 -16 -48
-44 -48 -77 -110 -83 -134 -15 -18 52 -13 121 18 241 56 217 91 493 74 573
-11 48 -38 59 -52 22 -13 -33 -26 -40 -51 -27 -37 20 -42 56 -41 267 2 220 -7
281 -55 375 -25 50 -57 88 -73 88 -5 0 -12 -21 -16 -46 -7 -48 -26 -65 -54
-47 -30 19 -52 71 -66 160 -18 109 -31 142 -100 247 -86 131 -186 214 -210
176 -4 -6 3 -27 14 -46 12 -19 21 -37 21 -40 0 -16 -62 3 -145 46 -86 44 -105
50 -159 50 -33 0 -78 -4 -98 -9 -33 -8 -38 -7 -38 9 0 28 38 68 68 72 16 2 28
10 30 21 8 40 -189 7 -310 -53 -120 -60 -202 -138 -256 -245 -20 -41 -49 -162
-40 -170 3 -3 38 7 79 21 41 14 95 25 121 25 59 0 132 -31 178 -76 19 -18 44
-35 55 -37 22 -3 23 9 9 98 -8 58 11 75 68 62 118 -26 269 -170 352 -336 75
-150 120 -541 95 -827 -39 -450 -200 -837 -461 -1110 -187 -197 -406 -326
-657 -390 -277 -71 -663 -50 -941 50 -385 140 -660 438 -764 826 -39 147 -49
232 -49 399 0 296 67 492 225 651 80 80 156 120 277 144 97 20 152 15 225 -18
67 -31 111 -78 136 -144 42 -112 20 -170 -84 -224 -36 -19 -65 -38 -63 -44 5
-18 73 -45 138 -57 52 -9 70 -17 96 -45 49 -51 59 -98 43 -191 -17 -100 -23
-195 -15 -239 8 -42 63 -105 113 -129 48 -23 101 -34 107 -23 3 4 -5 28 -17
51 -31 59 -30 177 2 261 28 74 108 194 161 241 48 44 67 43 171 -11 86 -45
181 -132 245 -225 94 -136 114 -197 93 -274 -15 -53 -10 -60 57 -70 52 -8 141
17 170 48 12 13 29 50 38 83 10 33 31 86 48 117 26 51 29 64 23 112 -7 64 -49
194 -107 333 -69 167 -77 194 -88 318 -18 192 -26 210 -129 299 -132 115 -231
231 -370 436 -164 241 -352 409 -578 517 -142 67 -260 94 -429 99 -77 1 -159
-1 -182 -6z"/>
</g>
</svg>
